<svg xmlns="http://www.w3.org/2000/svg" width="256" height="256" viewBox="0 0 256 256" fill="none">
  <!-- Placeholder mascot (SVG). -->
  <defs>
    <linearGradient id="g" x1="40" y1="40" x2="220" y2="220" gradientUnits="userSpaceOnUse">
      <stop stop-color="#FF79B0"/>
      <stop offset="1" stop-color="#FF4D9A"/>
    </linearGradient>
    <filter id="s" x="-20%" y="-20%" width="140%" height="140%">
      <feDropShadow dx="0" dy="10" stdDeviation="10" flood-color="#000" flood-opacity="0.18"/>
    </filter>
  </defs>

  <!-- platform -->
  <ellipse cx="128" cy="212" rx="92" ry="26" fill="#2A79B4" opacity="0.95" filter="url(#s)"/>
  <ellipse cx="128" cy="208" rx="92" ry="26" fill="#3CB3E9" opacity="0.9"/>
  <ellipse cx="128" cy="206" rx="78" ry="20" fill="#1E5E88" opacity="0.55"/>

  <!-- body -->
  <path d="M64 122c0-46 28-78 64-78s64 32 64 78c0 44-26 88-64 88s-64-44-64-88Z" fill="url(#g)" filter="url(#s)"/>

  <!-- horns -->
  <path d="M84 62c-6-18 6-30 18-32 6 10 3 25-6 34-4 4-8 5-12-2Z" fill="#FF8FC0"/>
  <path d="M172 62c6-18-6-30-18-32-6 10-3 25 6 34 4 4 8 5 12-2Z" fill="#FF8FC0"/>
  <path d="M92 64c-4-10 5-20 12-20 4 6 1 16-5 22-3 3-5 2-7-2Z" fill="#FF5BA3"/>
  <path d="M164 64c4-10-5-20-12-20-4 6-1 16 5 22 3 3 5 2 7-2Z" fill="#FF5BA3"/>

  <!-- face -->
  <circle cx="104" cy="116" r="9" fill="#1F2430"/>
  <circle cx="152" cy="116" r="9" fill="#1F2430"/>
  <circle cx="101" cy="112" r="3" fill="#FFFFFF" opacity="0.9"/>
  <circle cx="149" cy="112" r="3" fill="#FFFFFF" opacity="0.9"/>
  <path d="M110 142c12 10 24 10 36 0" stroke="#1F2430" stroke-width="7" stroke-linecap="round"/>

  <!-- blush -->
  <ellipse cx="90" cy="134" rx="12" ry="8" fill="#FFB3D2" opacity="0.85"/>
  <ellipse cx="166" cy="134" rx="12" ry="8" fill="#FFB3D2" opacity="0.85"/>

  <!-- arms -->
  <path d="M54 126c-10 8-10 20 0 30 10 10 26 6 34-4" stroke="#FF6AAC" stroke-width="18" stroke-linecap="round"/>
  <path d="M202 126c10 8 10 20 0 30-10 10-26 6-34-4" stroke="#FF6AAC" stroke-width="18" stroke-linecap="round"/>
</svg>





